<svg width="247" height="45" viewBox="0 0 247 45" fill="none" xmlns="http://www.w3.org/2000/svg">
<path fill-rule="evenodd" clip-rule="evenodd" d="M0 4C0 1.79086 1.79086 0 4 0H13V1.42104H4C2.34315 1.42104 1 2.76419 1 4.42104V40.5789C1 42.2358 2.34314 43.5789 4 43.5789H243C244.657 43.5789 246 42.2358 246 40.5789V4.42104C246 2.76418 244.657 1.42104 243 1.42104H236V0H243C245.209 0 247 1.79086 247 4V41C247 43.2091 245.209 45 243 45H4C1.79086 45 0 43.2091 0 41V4Z" fill="black" fill-opacity="0.12"/>
</svg>
