<svg width="26" height="24" viewBox="0 0 26 24" fill="none" xmlns="http://www.w3.org/2000/svg">
<g clip-path="url(#clip0_0_65)">
<path d="M12.6063 2L6.82842 11H18.3842L12.6063 2ZM12.6063 5.84L14.6338 9H10.5683L12.6063 5.84ZM18.3842 13C15.7684 13 13.6568 15.01 13.6568 17.5C13.6568 19.99 15.7684 22 18.3842 22C21 22 23.1115 19.99 23.1115 17.5C23.1115 15.01 21 13 18.3842 13ZM18.3842 20C16.9345 20 15.7579 18.88 15.7579 17.5C15.7579 16.12 16.9345 15 18.3842 15C19.8339 15 21.0105 16.12 21.0105 17.5C21.0105 18.88 19.8339 20 18.3842 20ZM3.15158 21.5H11.5558V13.5H3.15158V21.5ZM5.25263 15.5H9.45473V19.5H5.25263V15.5Z" fill="#121212"/>
</g>
<defs>
<clipPath id="clip0_0_65">
<rect width="25.2126" height="24" fill="white"/>
</clipPath>
</defs>
</svg>
